<?xml version="1.0" encoding="utf-8"?>
<!-- Generator: Adobe Illustrator 24.3.0, SVG Export Plug-In . SVG Version: 6.00 Build 0)  -->
<svg version="1.1"
	 id="svg3209" xmlns:cc="https://creativecommons.org/ns#" xmlns:dc="https://purl.org/dc/elements/1.1/" xmlns:inkscape="https://www.inkscape.org/namespaces/inkscape" xmlns:rdf="http://www.w3.org/1999/02/22-rdf-syntax-ns#" xmlns:sodipodi="https://sodipodi.sourceforge.net/DTD/sodipodi-0.dtd" xmlns:svg="http://www.w3.org/2000/svg"
	 xmlns="http://www.w3.org/2000/svg" xmlns:xlink="http://www.w3.org/1999/xlink" x="0px" y="0px" viewBox="0 0 2190.3 520"
	 style="enable-background:new 0 0 2190.3 520;" xml:space="preserve">
<style type="text/css">
	.st0{fill:#5D5E5E;}
</style>
<g id="layer1" transform="translate(30.649276,38.205598)" inkscape:groupmode="layer" inkscape:label="Ebene 1">
	<g id="g170" transform="matrix(11.759172,0,0,-11.759172,269.70834,464.50948)">
		<path id="path172" inkscape:connector-curvature="0" class="st0" d="M0,0h-3.7l-1,5c-1.4-3-3.1-5.6-8.2-5.6
			c-9.3,0-12.6,8.5-12.6,20.7c0,9.5,2.2,21.8,13.5,21.8c10,0,11.5-9.3,11.9-14l-7-1.3c-0.7,4.6-1.2,7.9-4.9,7.9
			c-2.2,0-3.2-1.1-3.8-2.9c-0.9-2.7-1-8.7-1-11.9c0-9.9,1.3-12.9,4.9-12.9c2.4,0,4.5,1.1,4.5,8.2h-5.1v6.9l12.5,0V0z"/>
	</g>
	<g id="g174" transform="matrix(11.759172,0,0,-11.759172,285.70905,-20.931443)">
		<path id="path176" inkscape:connector-curvature="0" class="st0" d="M0,0h8.5v-33.7h10.5v-7.6L0-41.3V0z"/>
	</g>
	<g id="g178" transform="matrix(11.759172,0,0,-11.759172,-516.80977,2971.7779)">
		<g>
			<g id="g180">
				<g id="g186" transform="translate(98.2917,228.8145)">
					<path id="path188" inkscape:connector-curvature="0" class="st0" d="M0,0l2.2,11.4c0.5,2.5,0.7,4.8,1,6.6
						c0.2-3.7,0.5-5.3,0.9-6.9L6.4,0H0z M-0.6,25.7l-9.5-41.3h7.6l1.6,8.9h8.2L9-15.6h8.5L8.2,25.7C8.2,25.7-0.6,25.7-0.6,25.7z"/>
				</g>
				<g id="g190" transform="translate(116.4864,254.5)">
					<path id="path192" inkscape:connector-curvature="0" class="st0" d="M0,0h11.6l3.2-17.4c0.7-3.8,1.1-8.1,1.3-11.8
						c0.3,4.5,1.2,10.5,1.7,12.7L21.4,0h11.4v-41.3h-8.1v23.5c0,2.7,0.1,4.4,0.4,12.5c-0.4-2.7-1.4-10-1.8-12.1l-5-23.9h-5.3L8.1-17
						C7.6-14.2,6.9-9.2,6.5-5.3c0.1-3.2,0.2-8.3,0.2-11.5v-24.5H0L0,0z"/>
				</g>
				<g id="g194" transform="translate(163.2928,247.7536)">
					<path id="path196" inkscape:connector-curvature="0" class="st0" d="M0,0c1.6,0,2.5-0.6,3.2-2.7C4-5.1,4-11,4-13.5
						c0-0.6,0-7.8-0.5-10.6c-0.4-2.2-1.1-3.7-3.3-3.7c-2.1,0-2.8,1.4-3.3,3c-0.7,2.9-0.7,6.9-0.7,10.5c0,5.2,0.1,9.7,0.9,11.7
						C-2.3-0.7-1.3,0,0,0 M0.2,7.4c-9.7,0-13-8.2-13-20.8c0-6.6,0.8-12.7,3.5-17c0.5-0.8,2.9-4.7,9.3-4.7c10.2,0,13,8.8,13,21
						C13-1.7,10.2,7.4,0.2,7.4"/>
				</g>
				<g id="g198" transform="translate(186.2379,254.5)">
					<path id="path200" inkscape:connector-curvature="0" class="st0" d="M0,0v-26.3c0-5.1,0.4-8,4.2-8c4,0,4.1,3.7,4.1,8.5V0h7.2
						v-25.9c0-7.3-0.4-16-11.8-16c-9.4,0-12.1,4.8-12.1,15.3V0H0z"/>
				</g>
				<g id="g202" transform="translate(211.3512,248.0013)">
					<path id="path204" inkscape:connector-curvature="0" class="st0" d="M0,0h2.4c2.7,0,4.6-1.4,4.6-5.7c0-3.9-1.3-6.1-4.6-6.1H0V0
						z M-8.3-34.8H0v16.2h2.7l4.6-16.2h8.9L10-16.9c1.9,1.2,5.4,3.3,5.4,11.1c0,1.5,0,6.4-3.8,10c-2.2,2-4.7,2.2-9.2,2.2H-8.3
						L-8.3-34.8L-8.3-34.8z"/>
				</g>
			</g>
		</g>
	</g>
</g>
</svg>
