<?xml version="1.0" encoding="utf-8"?>
<!-- Generator: Adobe Illustrator 24.3.0, SVG Export Plug-In . SVG Version: 6.00 Build 0)  -->
<svg version="1.1" id="layer" xmlns="http://www.w3.org/2000/svg" xmlns:xlink="http://www.w3.org/1999/xlink" x="0px" y="0px"
	 viewBox="0 0 400 101" style="enable-background:new 0 0 400 101;" xml:space="preserve">
<style type="text/css">
	.st0{fill:#5D5E5E;}
</style>
<path class="st0" d="M398.2,43.9V32.5h-0.5c0,4.8-3.3,10.9-10.5,10.9h-4.1c-0.2,0-0.2,0-0.2-0.3V10.9c0-0.2,0-0.2,0.2-0.2h4.3v-0.5
	h-15.5v0.5h4.3c0.2,0,0.2,0,0.2,0.2v32.3c0,0.3,0,0.3-0.2,0.3h-4.3v0.5H398.2C397.9,43.9,398.2,43.9,398.2,43.9L398.2,43.9z
	 M305,10.7v-0.5h-9.5v0.5h4.3c0.2,0,0.2,0,0.2,0.2v23.2c0,6-2.9,9.8-9.5,9.8c-5.2,0-7-3.6-7-9.3V10.9c0-0.2,0-0.2,0.2-0.2h4.3v-0.5
	h-15.5v0.5h4.3c0.3,0,0.3,0,0.3,0.2v23.7c0,7.1,5,10.3,12.2,10.3c7.9,0,11.5-4.3,11.5-10.8V10.9c0-0.2,0-0.2,0.2-0.2H305L305,10.7z
	 M270.5,21.7V10h-29.4c0,0-0.2,0-0.2,0.3v11.5h0.5c0-5.5,3.1-11.2,10-11.2h0.5c0.3,0,0.3,0,0.3,0.3v32.3c0,0.2,0,0.2-0.3,0.2h-4.1
	v0.5h15.6v-0.5h-4.3c-0.3,0-0.3,0-0.3-0.2V10.9c0-0.3,0-0.3,0.3-0.3h0.5c7,0,10.3,5.5,10.3,11.2C269.8,21.9,270.5,21.9,270.5,21.7
	L270.5,21.7z M238.7,44.7V31.7h-0.5c0,6.2-4.8,12.5-10.5,12.5c-2.2,0-4.1-0.5-5.2-1.9c-2.2-2.4-3.1-7.1-3.1-15.3
	c0-8.1,1-13.1,3.1-15.3c1.4-1.4,2.9-1.9,5-1.9c4.8,0,9.8,6.2,9.8,10.9h0.5V9.5h-0.5c0,0.5-1,1.2-2.4,1.2c-2.2,0-5.2-1.2-7.4-1.2
	c-9,0-15.5,8.4-15.5,17.7c0,9.5,6.7,17.7,15.8,17.7c2.7,0,6.2-1.4,8.4-1.4c1.4,0,2.2,1,2.2,1.4C238.2,44.7,238.7,44.7,238.7,44.7z
	 M210,43.9v-11h-0.5c0,5-3.3,10.8-11.2,10.8h-4.8c-0.3,0-0.3,0-0.3-0.2V27h1.2c3.8,0,6.2,3.1,6.2,6.5h0.5V19.8h-0.5
	c0,3.3-2.4,6.5-6.2,6.5h-1.2V10.8c0-0.3,0-0.3,0.3-0.3h4.6c6,0,8.9,5.2,8.9,9.8h0.5V10.2c0,0,0-0.3-0.3-0.3H182v0.5h4.3
	c0.3,0,0.3,0,0.3,0.3V43c0,0.2,0,0.2-0.3,0.2H182v0.5L210,43.9C209.8,43.9,210,43.9,210,43.9z M179.7,21.7V10h-29.4
	c0,0-0.2,0-0.2,0.3v11.5h0.5c0-5.5,3.1-11.2,10-11.2h0.5c0.2,0,0.2,0,0.2,0.3v32.3c0,0.2,0,0.2-0.2,0.2h-4.1v0.5h15.5v-0.5h-4.1
	c-0.3,0-0.3,0-0.3-0.2V10.9c0-0.3,0-0.3,0.3-0.3h0.5c7,0,10.3,5.5,10.3,11.2C179.2,21.9,179.7,21.9,179.7,21.7z M148.2,43.9v-0.5
	h-4.3c-0.2,0-0.2,0-0.2-0.3V10.9c0-0.2,0-0.2,0.2-0.2h4.3v-0.5h-15.5v0.5h4.3c0.3,0,0.3,0,0.3,0.2v32.3c0,0.3,0,0.3-0.3,0.3h-4.3
	v0.5H148.2L148.2,43.9z M129.7,43.9v-0.5h-4.3c-0.3,0-0.3,0-0.3-0.3V10.9c0-0.2,0-0.2,0.3-0.2h4.3v-0.5h-15v0.5h3.8
	c0.2,0,0.2,0,0.2,0.2v15.3h-10.9V10.9c0-0.2,0-0.2,0.3-0.2h3.8v-0.5h-15v0.5h4.1c0.2,0,0.2,0,0.2,0.2v32.3c0,0.3,0,0.3-0.2,0.3h-4.1
	v0.5h15v-0.5H108c-0.2,0-0.2,0-0.2-0.3V26.7h10.9v16.5c0,0.3,0,0.3-0.3,0.3h-3.8v0.5H129.7L129.7,43.9z M93.1,44.7V31.7h-0.5
	c0,6.2-4.8,12.5-10.5,12.5c-2.2,0-4.1-0.5-5.2-1.9c-2.2-2.4-3.1-7.1-3.1-15.3c0-8.1,1-13.1,3.1-15.3c1.4-1.4,2.9-1.9,5-1.9
	c4.8,0,9.8,6.2,9.8,10.9h0.5V9.5h-0.5c0,0.5-1,1.2-2.4,1.2c-2.2,0-5.2-1.2-7.4-1.2c-9,0-15.5,8.4-15.5,17.7
	c0,9.5,6.7,17.7,15.8,17.7c2.7,0,6.2-1.4,8.4-1.4c1.4,0,2.2,1,2.2,1.4C92.6,44.7,93.1,44.7,93.1,44.7z M54.7,18.6c0,6-1,7.4-5.5,7.4
	h-2.9V10.7c0-0.3,0-0.3,0.3-0.3h2.2C53.2,10.7,54.7,12.7,54.7,18.6z M68.7,43.3l-0.3-0.5C67.7,43.6,67,44,65.8,44
	c-1.7,0-2.9-1.4-2.9-4.1v-4.3c0-4.8-3.1-9.3-10.8-9.3c5.5,0,9.3-3.6,9.3-7.9c0-4.8-4.3-8.4-11.5-8.4H35.3v0.5h4.3
	c0.2,0,0.2,0,0.2,0.3v32.3c0,0.2,0,0.2-0.2,0.2h-4.3v0.5h15.3v-0.5h-4.1c-0.3,0-0.3,0-0.3-0.2V26.6h2.9c4.3,0,7,1.7,7,5.7v3.1
	c0,7,4.6,9.3,8.4,9.3C66.4,44.9,67.8,44.2,68.7,43.3z M20.5,32h-9.8l5-14.1L20.5,32L20.5,32z M36,43.9v-0.5h-4c-0.2,0-0.2,0-0.5-0.3
	L18.9,9.3c0-0.3-0.5-0.3-0.5,0l-11.5,32c-0.8,1.9-0.8,1.9-1.2,1.9H2v0.5h9c0.3,0,0.3-0.5,0-0.5H7c-0.2,0-0.2-0.2,0.5-1.9l3.1-8.9
	h10.3l3.6,10.8c0,0,0,0.3-0.2,0.3H20c-0.2,0-0.2,0.5,0,0.5H36L36,43.9z M320.2,26h-2.9V10.7c0-0.3,0-0.3,0.2-0.3h2.2
	c4.6,0,6,1.9,6,7.9C326,24.6,325,26,320.2,26z M337,43.5c-1.7,0-2.9-1.7-2.9-4.1v-3.6c0-4.8-3.1-9.3-10.8-9.3c5.5,0,9.3-3.6,9.3-7.9
	c0-4.8-4.3-8.4-11.5-8.4h-14.9v0.5h4.3c0.3,0,0.3,0,0.3,0.2v32.3c0,0.3,0,0.3-0.3,0.3h-4.3v0.5h15.3v-0.5h-4c-0.2,0-0.2,0-0.2-0.3
	V26.6h2.9c4.3,0,7,1.7,7,5.7v3.1c0,7,4.6,8.6,8.4,8.6h1.2v-0.8L337,43.5L337,43.5z M354.9,32h-9.8l5-14.1L354.9,32L354.9,32z
	 M370.4,43.9v-0.5h-4.1c-0.2,0-0.2,0-0.5-0.3L353.2,9.3c0-0.3-0.5-0.3-0.5,0l-11.5,32c-0.8,1.9-0.8,1.9-1.2,1.9h-2.7v0.5h8.1
	c0.2,0,0.2-0.5,0-0.5h-4.1c-0.3,0-0.3-0.2,0.5-1.9l3.1-8.9h10.3l3.6,10.8c0,0,0,0.3-0.2,0.3h-4.3c-0.3,0-0.3,0.5,0,0.5H370.4
	L370.4,43.9z"/>
<image style="display:none;overflow:visible;" width="400" height="101" xlink:href="AyyDee_4bc51481-34ac-4931-aeed-a385c47c8443_400x.png" >
</image>
<path class="st0" d="M281.1,70.4V58.7h-29.6c0,0-0.3,0-0.3,0.3v11.5h0.5c0-5.5,3.1-11.2,10-11.2h0.5c0.3,0,0.3,0,0.3,0.3v32.3
	c0,0.2,0,0.2-0.3,0.2h-4.1v0.5h15.5V92h-4.3c-0.3,0-0.3,0-0.3-0.2V59.5c0-0.3,0-0.3,0.3-0.3h0.5c7,0,10.3,5.5,10.3,11.2
	C280.3,70.6,281.1,70.6,281.1,70.4L281.1,70.4z M251,82.1c0-5.7-3.8-8.1-10-10.3c-6-2.2-8.6-4.1-8.6-7.4c0-3.3,2.4-5.7,6.2-5.7
	c4.3,0,8.1,4.1,8.1,8.6h0.5v-9c0-0.2-0.5-0.2-0.5,0c0,0.5-0.5,1.2-1.9,1.2c-2.4,0-3.6-1.2-6.2-1.2c-4.8,0-9,4.6-9,10.8
	c0,5.7,3.6,8.1,7.9,9.8c7.4,2.7,10,3.8,10,8.4c0,3.1-2.4,6.2-7.9,6.2c-6.2,0-10.5-7.4-10.5-11.2c0-0.3-0.5-0.3-0.5,0v11.7
	c0,0.3,0.5,0.3,0.5,0c0-1,1.2-1.9,2.7-1.9c1.9,0,4.8,1.9,8.1,1.9C246.9,93.5,251,87.3,251,82.1L251,82.1z M225.9,92.5v-11h-0.5
	c0,5-3.3,10.8-11.2,10.8h-4.8c-0.3,0-0.3,0-0.3-0.2V75.6h1.2c3.8,0,6.2,3.1,6.2,6.5h0.5V68.5h-0.5c0,3.3-2.4,6.5-6.2,6.5h-1.2V59.4
	c0-0.3,0-0.3,0.2-0.3h4.6c6,0,8.9,5.2,8.9,9.8h0.5V58.8c0,0,0-0.3-0.2-0.3h-25.1V59h4.3c0.2,0,0.2,0,0.2,0.3v32.3
	c0,0.2,0,0.2-0.2,0.2h-4.3v0.5L225.9,92.5L225.9,92.5z M199.3,79.9v-0.5h-15.5v0.5h4.3c0.3,0,0.3,0,0.3,0.3v8.6
	c0,2.7-1.4,4.3-5.7,4.3c-2.2,0-3.8-0.5-5-1.9c-2.2-2.4-2.4-6.5-2.4-15.3c0-8.4,0.8-13.1,3.1-15.3c1.4-1.4,3.1-1.9,5-1.9
	c4.8,0,8.9,6.2,8.9,10.9h0.5V58h-0.5c0,0.5-1,1.2-2.4,1.2c-1.7,0-4.3-1.2-6.5-1.2c-8.9,0-15.5,8.4-15.5,17.7c0,9,5.7,17.7,14.9,17.7
	c5.2,0,7.6-2.4,9.8-2.4c1.4,0,1.9,0.8,2.2,1.7c0,0.3,0.8,0.3,0.8,0V79.8c0,0,0-0.2,0.2-0.2h3.8L199.3,79.9L199.3,79.9z M165.9,92.5
	v-0.5h-4.3c-0.2,0-0.2,0-0.2-0.3V59.5c0-0.2,0-0.2,0.2-0.2h4.3v-0.5h-15.5v0.5h4.3c0.3,0,0.3,0,0.3,0.2v32.3c0,0.3,0,0.3-0.3,0.3
	h-4.3v0.5H165.9L165.9,92.5z M142.2,75.6c0,9-0.8,12.5-3.1,14.6c-1.4,1.4-2.9,1.7-5,1.7h-3.8c-0.3,0-0.3,0-0.3-0.2V59.2
	c0-0.2,0-0.2,0.3-0.2h3.8c2.2,0,3.8,0.5,5,1.7C141.5,63.2,142.2,67.7,142.2,75.6L142.2,75.6z M149.6,75.6c0-9.3-7-16.9-15.3-16.9
	H119v0.5h4.1c0.3,0,0.3,0,0.3,0.3v32.3c0,0.2,0,0.2-0.3,0.2H119v0.5h15.3C142.7,92.5,149.6,84.9,149.6,75.6L149.6,75.6z"/>
</svg>
