<?xml version="1.0" encoding="utf-8"?>
<!-- Generator: Adobe Illustrator 24.3.0, SVG Export Plug-In . SVG Version: 6.00 Build 0)  -->
<svg version="1.1"
	 id="svg2" xmlns:cc="https://creativecommons.org/ns#" xmlns:dc="https://purl.org/dc/elements/1.1/" xmlns:inkscape="https://www.inkscape.org/namespaces/inkscape" xmlns:rdf="http://www.w3.org/1999/02/22-rdf-syntax-ns#" xmlns:sodipodi="https://sodipodi.sourceforge.net/DTD/sodipodi-0.dtd" xmlns:svg="http://www.w3.org/2000/svg"
	 xmlns="http://www.w3.org/2000/svg" xmlns:xlink="http://www.w3.org/1999/xlink" x="0px" y="0px" viewBox="0 0 1543.93 409.82"
	 style="enable-background:new 0 0 1543.93 409.82;" xml:space="preserve">
<style type="text/css">
	.st0{fill:#5D5E5E;}
</style>
<sodipodi:namedview  bordercolor="#666666" borderopacity="1.0" fit-margin-bottom="10" fit-margin-left="10" fit-margin-right="10" fit-margin-top="10" id="base" inkscape:current-layer="layer1" inkscape:cx="771.96476" inkscape:cy="204.90885" inkscape:document-units="px" inkscape:pageopacity="0.0" inkscape:pageshadow="2" inkscape:window-height="987" inkscape:window-maximized="1" inkscape:window-width="1680" inkscape:window-x="-8" inkscape:window-y="32" inkscape:zoom="1.025638" pagecolor="#ffffff" showgrid="false">
	</sodipodi:namedview>
<g id="layer1" transform="translate(-1687.849,1694.3458)" inkscape:groupmode="layer" inkscape:label="Ebene 1">
	<g id="g3846" transform="matrix(1.5770358,0,0,1.5770358,-1570.7398,-1303.8993)">
		<g id="g3863">
			<path id="path3064" inkscape:connector-curvature="0" sodipodi:nodetypes="zszszzszsz" class="st0" d="M2354.45-240.17
				c-56.32,0.4-102.39,63-102.39,117.6c0,57.46,33.77,127.54,102.39,127.32c68.62-0.23,104.24-75.68,104.24-127.32
				C2458.69-179.6,2410.77-240.57,2354.45-240.17z M2354.45-238.03c47.14,0,59.86,52.06,59.86,115.46
				c0,83.65-15.34,124.92-59.86,124.84c-44.52-0.08-59-33.85-59-124.84C2295.46-179.56,2307.31-238.03,2354.45-238.03z"/>
			<path id="path3060" inkscape:connector-curvature="0" sodipodi:nodetypes="zcsccccszscccccccccssz" class="st0" d="
				M2477.28-121.03c-0.25-62.12,49.47-117.16,91.56-119.89c15.2-1.08,34.75,5.89,46.16,10.84c8.28,3.6,25.2-1.61,28.2-11.18h1.64
				v84.63h-1.64c0-3.61-15.67-82.17-74.36-82.17c-43.35,0-47.53,76.22-47.53,117.76s1.26,123.78,51.85,123.78
				c24.5,0,42.64-10.72,47.34-32.41V-95.6h-20.57v-2.81h79.72v2.81h-19.66V0.81h-1.6c0,0-3.2-13.91-19.42-13.86
				c-20.73,0.06-40.29,18.07-64.12,17.85C2511.82,4.22,2477.54-58.9,2477.28-121.03L2477.28-121.03z"/>
			<path id="path3058" inkscape:connector-curvature="0" sodipodi:nodetypes="ccccccccccccccc" class="st0" d="M2097.44-231.83
				h-24.82v-2.79h86.96v2.79h-21.82l62.13,168.74c19.43-59.82,34.48-104.03,54.74-168.74h-21.58v-2.79h45.91v2.79h-20.91
				L2182.54,3.59L2097.44-231.83z"/>
			
				<path id="path3054" inkscape:connector-curvature="0" sodipodi:nodetypes="sccccccczcccccccsccscccssccscccccccccss" class="st0" d="
				M2691.83-54.05l-0.39-178.05h-23.63v-2.67h87.05v2.67h-23.61l0.52,195.23c5.23,22.36,14.52,39.32,46.28,39.57
				c31.75,0.25,53.34-18.78,61.36-44.8v-190h-27.03v-2.59h221.23l0.46,85.47h-2.13c-4.1-55.19-25.4-76.04-62.64-82.13
				c-12.81-2.09-26.26-0.54-43.25-0.67v109.09c14.8,1.14,30.56,0.21,41.19-8.92c9.66-8.3,12.39-27.47,13.1-35.26h1.87v94.98h-2.02
				c-0.58,0-1.36-23.83-12.95-35.14c-11.66-11.38-26.51-14.18-41.19-11.47V-2.21c20.73,0,37.25,1.76,51.6-2.18
				c43.62-11.96,58.98-48.76,58.86-85.67h2.43v90.6h-173.53v-2.76h19.62V-232.1h-42.39v190c-4.8,18.18-22.37,48.25-67.37,48.05
				C2733.42,5.75,2691.92-13.11,2691.83-54.05L2691.83-54.05z"/>
		</g>
	</g>
</g>
</svg>
